<svg xmlns="http://www.w3.org/2000/svg" viewBox="0 0 880 340" font-family="system-ui, -apple-system, Segoe UI, sans-serif">
  <rect width="880" height="340" fill="#f4f7f9" rx="12"/>
  <text x="440" y="34" text-anchor="middle" font-size="18" font-weight="700" fill="#234e7d">Inventory &amp; Alert Flow</text>

  <g>
    <rect x="50" y="70" width="150" height="60" rx="10" fill="#fff" stroke="#00aaff"/>
    <text x="125" y="95" text-anchor="middle" font-size="12" font-weight="700" fill="#234e7d">Product</text>
    <text x="125" y="115" text-anchor="middle" font-size="10" fill="#64748b">Listings CRUD</text>
  </g>
  <path d="M200 100 H250" stroke="#00aaff" stroke-width="2" marker-end="url(#ar)"/>

  <g>
    <rect x="250" y="70" width="150" height="60" rx="10" fill="#fff" stroke="#234e7d"/>
    <text x="325" y="95" text-anchor="middle" font-size="12" font-weight="700" fill="#234e7d">Inventory</text>
    <text x="325" y="115" text-anchor="middle" font-size="10" fill="#64748b">qty Ě threshold</text>
  </g>
  <path d="M400 100 H450" stroke="#234e7d" stroke-width="2" marker-end="url(#ar)"/>

  <g>
    <rect x="450" y="70" width="150" height="60" rx="10" fill="#fff" stroke="#5bc0de"/>
    <text x="525" y="95" text-anchor="middle" font-size="12" font-weight="700" fill="#234e7d">Stock check</text>
    <text x="525" y="115" text-anchor="middle" font-size="10" fill="#64748b">alert_service</text>
  </g>
  <path d="M600 100 H650" stroke="#f0ad4e" stroke-width="2" marker-end="url(#arA)"/>

  <g>
    <rect x="650" y="70" width="170" height="60" rx="10" fill="#fef3c7" stroke="#f0ad4e"/>
    <text x="735" y="95" text-anchor="middle" font-size="12" font-weight="700" fill="#b45309">Notification</text>
    <text x="735" y="115" text-anchor="middle" font-size="10" fill="#64748b">low / out of stock</text>
  </g>

  <rect x="50" y="170" width="770" height="140" rx="10" fill="#fff" stroke="#e2e8f0"/>
  <text x="435" y="198" text-anchor="middle" font-size="13" font-weight="700" fill="#234e7d">Stock adjustment path</text>

  <rect x="80" y="220" width="110" height="44" rx="8" fill="#234e7d" opacity="0.1"/>
  <text x="135" y="247" text-anchor="middle" font-size="11" fill="#234e7d">Admin adjusts</text>

  <text x="220" y="247" font-size="16" fill="#94a3b8">ĺ</text>

  <rect x="240" y="220" width="150" height="44" rx="8" fill="#e0f2fe" stroke="#00aaff"/>
  <text x="315" y="247" text-anchor="middle" font-size="11" fill="#0369a1">POST /inventory/id/adjust</text>

  <text x="410" y="247" font-size="16" fill="#94a3b8">ĺ</text>

  <rect x="430" y="220" width="120" height="44" rx="8" fill="#f1f5f9"/>
  <text x="490" y="247" text-anchor="middle" font-size="11" fill="#334155">Update quantity</text>

  <text x="570" y="247" font-size="16" fill="#94a3b8">ĺ</text>

  <rect x="590" y="220" width="200" height="44" rx="8" fill="#fef3c7" stroke="#f0ad4e"/>
  <text x="690" y="247" text-anchor="middle" font-size="11" fill="#b45309">Re-evaluate alerts + dashboard</text>

  <defs>
    <marker id="ar" markerWidth="8" markerHeight="8" refX="6" refY="3" orient="auto">
      <path d="M0,0 L6,3 L0,6 Z" fill="#00aaff"/>
    </marker>
    <marker id="arA" markerWidth="8" markerHeight="8" refX="6" refY="3" orient="auto">
      <path d="M0,0 L6,3 L0,6 Z" fill="#f0ad4e"/>
    </marker>
  </defs>
</svg>
